<svg xmlns="http://www.w3.org/2000/svg" xmlns:xlink="http://www.w3.org/1999/xlink" id="hero" x="0px" y="0px" viewBox="0 0 3000 2400" style="enable-background:new 0 0 3000 2400;" xml:space="preserve"><filter id="shadow-mob">	<feDropShadow dx="0" dy="12" stdDeviation="30" flood-color="#1e344d" flood-opacity="0.15"></feDropShadow></filter><g filter="url(#shadow-mob)">	<g id="mtext">		<g id="melementor">			<path style="fill:#FFFFFF;" d="M785.46,2165.79v-98.7h70.14v19.88h-45.08v18.76h42.28v19.74h-42.28v20.44h45.08v19.88H785.46z"></path>			<path style="fill:#FFFFFF;" d="M870.16,2165.79v-98.7h24.92v98.7H870.16z"></path>			<path style="fill:#FFFFFF;" d="M975.85,2136.11h-42.56c0.75,4.48,2.38,7.7,4.9,9.66s6.11,2.94,10.78,2.94     c3.36,0,6.77-0.56,10.22-1.68c3.45-1.12,6.53-2.66,9.24-4.62l6.3,16.38c-3.45,2.52-7.61,4.5-12.46,5.95     c-4.85,1.45-9.71,2.17-14.56,2.17c-7.93,0-14.79-1.45-20.58-4.34c-5.79-2.89-10.24-7.05-13.37-12.46     c-3.13-5.41-4.69-11.76-4.69-19.04c0-6.91,1.47-13.09,4.41-18.55c2.94-5.46,7.05-9.71,12.32-12.74     c5.27-3.03,11.22-4.55,17.85-4.55c9.89,0,17.73,3.15,23.52,9.45c5.79,6.3,8.68,14.91,8.68,25.83V2136.11z M933.01,2124.35h21.98     c-0.56-8.21-4.11-12.32-10.64-12.32C937.73,2112.03,933.95,2116.14,933.01,2124.35z"></path>			<path style="fill:#FFFFFF;" d="M1095.76,2102.51c3.87,4.85,5.81,12.32,5.81,22.4v40.88h-24.92v-40.18c0-4.01-0.61-6.91-1.82-8.68     c-1.21-1.77-3.22-2.66-6.02-2.66c-3.45,0-6.09,1.21-7.91,3.64c-1.82,2.43-2.73,5.88-2.73,10.36v37.52h-24.92v-40.18     c0-4.01-0.61-6.91-1.82-8.68c-1.21-1.77-3.22-2.66-6.02-2.66c-3.45,0-6.07,1.21-7.84,3.64c-1.77,2.43-2.66,5.88-2.66,10.36v37.52     h-24.92v-68.88h24.22v8.68c4.57-6.91,11.57-10.36,21-10.36c9.89,0,16.57,4.06,20.02,12.18c2.43-3.83,5.62-6.81,9.59-8.96     c3.97-2.15,8.33-3.22,13.09-3.22C1085.94,2095.23,1091.89,2097.66,1095.76,2102.51z"></path>			<path style="fill:#FFFFFF;" d="M1181.93,2136.11h-42.56c0.75,4.48,2.38,7.7,4.9,9.66s6.11,2.94,10.78,2.94     c3.36,0,6.77-0.56,10.22-1.68c3.45-1.12,6.53-2.66,9.24-4.62l6.3,16.38c-3.45,2.52-7.61,4.5-12.46,5.95     c-4.85,1.45-9.71,2.17-14.56,2.17c-7.93,0-14.79-1.45-20.58-4.34c-5.79-2.89-10.24-7.05-13.37-12.46     c-3.13-5.41-4.69-11.76-4.69-19.04c0-6.91,1.47-13.09,4.41-18.55c2.94-5.46,7.05-9.71,12.32-12.74     c5.27-3.03,11.22-4.55,17.85-4.55c9.89,0,17.73,3.15,23.52,9.45c5.79,6.3,8.68,14.91,8.68,25.83V2136.11z M1139.09,2124.35h21.98     c-0.56-8.21-4.11-12.32-10.64-12.32C1143.8,2112.03,1140.02,2116.14,1139.09,2124.35z"></path>			<path style="fill:#FFFFFF;" d="M1260.75,2102.58c4.01,4.9,6.02,12.34,6.02,22.33v40.88h-24.92v-39.76c0-4.11-0.72-7.09-2.17-8.96     c-1.45-1.87-3.62-2.8-6.51-2.8c-3.73,0-6.7,1.19-8.89,3.57c-2.19,2.38-3.29,5.58-3.29,9.59v38.36h-24.92v-68.88h24.22v9.24     c2.43-3.55,5.55-6.25,9.38-8.12c3.83-1.87,8.07-2.8,12.74-2.8C1250.62,2095.23,1256.73,2097.68,1260.75,2102.58z"></path>			<path style="fill:#FFFFFF;" d="M1331.59,2148.57l-1.26,17.78c-2.99,0.37-5.88,0.56-8.68,0.56c-11.2,0-19.34-2.36-24.43-7.07     c-5.09-4.71-7.63-12.02-7.63-21.91v-22.68h-12.88v-18.34h12.88v-20.02h24.92v20.02h16.52v18.34h-16.52v22.82     c0,7.28,3.41,10.92,10.22,10.92C1326.78,2148.99,1329.07,2148.85,1331.59,2148.57z"></path>			<path style="fill:#FFFFFF;" d="M1357.84,2162.5c-5.74-2.94-10.17-7.12-13.3-12.53c-3.13-5.41-4.69-11.76-4.69-19.04     s1.56-13.6,4.69-18.97c3.13-5.37,7.54-9.5,13.23-12.39c5.69-2.89,12.37-4.34,20.02-4.34c7.65,0,14.33,1.45,20.02,4.34     c5.69,2.89,10.1,7.02,13.23,12.39c3.13,5.37,4.69,11.69,4.69,18.97s-1.56,13.63-4.69,19.04c-3.13,5.41-7.54,9.59-13.23,12.53     c-5.69,2.94-12.37,4.41-20.02,4.41C1370.23,2166.91,1363.58,2165.44,1357.84,2162.5z M1391.09,2130.93     c0-11.57-4.43-17.36-13.3-17.36c-8.87,0-13.3,5.79-13.3,17.36c0,11.57,4.43,17.36,13.3,17.36     C1386.65,2148.29,1391.09,2142.5,1391.09,2130.93z"></path>			<path style="fill:#FFFFFF;" d="M1482.93,2115.53l-13.58,1.4c-5.41,0.56-9.19,2.01-11.34,4.34c-2.15,2.33-3.22,5.65-3.22,9.94     v34.58h-24.92v-68.88h23.66v11.9c1.59-4.2,4.2-7.4,7.84-9.59c3.64-2.19,8.07-3.43,13.3-3.71l6.86-0.56L1482.93,2115.53z"></path>		</g>		<g id="mwpb">			<path style="fill:#FFFFFF;" d="M2098.41,2067.05h24.36l-35.28,98.7h-20.44l-20.86-59.22l-21.14,59.22h-20.58l-35.14-98.7h26.18     l20.44,62.58l22.12-62.58h17.78l21.14,63.7L2098.41,2067.05z"></path>			<path style="fill:#FFFFFF;" d="M2136.35,2067.05h47.74c10.92,0,19.41,2.78,25.48,8.33c6.07,5.55,9.1,13.28,9.1,23.17     c0,9.8-3.06,17.5-9.17,23.1c-6.11,5.6-14.58,8.4-25.41,8.4h-21.98v35.7h-25.76V2067.05z M2180.59,2110.73     c4.76,0,8.28-0.98,10.57-2.94c2.29-1.96,3.43-4.99,3.43-9.1c0-4.11-1.14-7.16-3.43-9.17c-2.29-2.01-5.81-3.01-10.57-3.01h-18.48     v24.22H2180.59z"></path>			<path style="fill:#FFFFFF;" d="M2313.45,2123.4c3.08,4.15,4.62,9.26,4.62,15.33c0,5.41-1.42,10.15-4.27,14.21     c-2.85,4.06-6.91,7.21-12.18,9.45c-5.27,2.24-11.46,3.36-18.55,3.36h-49.14v-98.7h47.74c10.36,0,18.6,2.31,24.71,6.93     c6.11,4.62,9.17,10.85,9.17,18.69c0,5.04-1.35,9.5-4.06,13.37c-2.71,3.87-6.49,6.7-11.34,8.47     C2305.93,2116.28,2310.37,2119.25,2313.45,2123.4z M2258.99,2105.83h18.34c4.85,0,8.4-0.75,10.64-2.24     c2.24-1.49,3.36-3.87,3.36-7.14c0-3.45-1.12-5.97-3.36-7.56c-2.24-1.59-5.79-2.38-10.64-2.38h-18.34V2105.83z M2290.84,2143.84     c2.19-1.63,3.29-4.32,3.29-8.05c0-3.73-1.1-6.42-3.29-8.05c-2.19-1.63-5.86-2.45-10.99-2.45h-20.86v21h20.86     C2284.98,2146.29,2288.64,2145.47,2290.84,2143.84z"></path>			<path style="fill:#FFFFFF;" d="M2387.86,2102.68c5.18,4.99,7.77,12.76,7.77,23.31v39.76h-23.38v-9.66c-1.31,3.36-3.5,6-6.58,7.91     s-6.77,2.87-11.06,2.87c-4.76,0-9.05-0.96-12.88-2.87c-3.83-1.91-6.84-4.57-9.03-7.98c-2.19-3.41-3.29-7.26-3.29-11.55     c0-4.95,1.28-8.89,3.85-11.83c2.57-2.94,6.65-5.06,12.25-6.37c5.6-1.31,13.16-1.96,22.68-1.96h3.78v-1.68     c0-3.45-0.79-5.86-2.38-7.21c-1.59-1.35-4.39-2.03-8.4-2.03c-3.17,0-6.84,0.63-10.99,1.89c-4.15,1.26-8.05,2.87-11.69,4.83     l-6.3-16.38c4.01-2.43,9.03-4.46,15.05-6.09c6.02-1.63,11.55-2.45,16.59-2.45C2374.67,2095.19,2382.68,2097.69,2387.86,2102.68z      M2368.75,2146.64c2.15-2.38,3.22-5.44,3.22-9.17v-1.68h-2.24c-5.97,0-10.22,0.54-12.74,1.61c-2.52,1.07-3.78,2.87-3.78,5.39     c0,2.15,0.68,3.92,2.03,5.32c1.35,1.4,3.1,2.1,5.25,2.1C2363.85,2150.21,2366.6,2149.02,2368.75,2146.64z"></path>			<path style="fill:#FFFFFF;" d="M2490.55,2165.75h-30.1l-23.1-29.26v29.26h-24.92v-98.7h24.92v58.1l22.68-28.14h29.54     l-26.88,32.76L2490.55,2165.75z"></path>			<path style="fill:#FFFFFF;" d="M2559.42,2136.07h-42.56c0.75,4.48,2.38,7.7,4.9,9.66c2.52,1.96,6.11,2.94,10.78,2.94     c3.36,0,6.77-0.56,10.22-1.68c3.45-1.12,6.53-2.66,9.24-4.62l6.3,16.38c-3.45,2.52-7.61,4.5-12.46,5.95     c-4.85,1.45-9.71,2.17-14.56,2.17c-7.93,0-14.79-1.45-20.58-4.34c-5.79-2.89-10.24-7.05-13.37-12.46     c-3.13-5.41-4.69-11.76-4.69-19.04c0-6.91,1.47-13.09,4.41-18.55c2.94-5.46,7.05-9.71,12.32-12.74     c5.27-3.03,11.22-4.55,17.85-4.55c9.89,0,17.73,3.15,23.52,9.45c5.79,6.3,8.68,14.91,8.68,25.83V2136.07z M2516.58,2124.31h21.98     c-0.56-8.21-4.11-12.32-10.64-12.32C2521.3,2111.99,2517.51,2116.1,2516.58,2124.31z"></path>			<path style="fill:#FFFFFF;" d="M2626.62,2115.49l-13.58,1.4c-5.41,0.56-9.19,2.01-11.34,4.34c-2.15,2.33-3.22,5.65-3.22,9.94     v34.58h-24.92v-68.88h23.66v11.9c1.59-4.2,4.2-7.4,7.84-9.59c3.64-2.19,8.07-3.43,13.3-3.71l6.86-0.56L2626.62,2115.49z"></path>			<path style="fill:#FFFFFF;" d="M2686.26,2097.01h24.36l-42,93.94h-25.2l13.86-29.96l-28.14-63.98h26.04l15.12,38.78     L2686.26,2097.01z"></path>		</g>		<g id="mfor">			<path style="fill:#FFFFFF;" d="M314.02,2097.89h19.32v8.96h-19.32v59.22h-11.34v-59.22h-13.3v-8.96h13.3v-2.24     c0-9.05,2.26-15.91,6.79-20.58c4.53-4.67,11.5-7.28,20.93-7.84l5.6-0.28l0.84,8.82l-6.44,0.42c-5.69,0.37-9.85,1.98-12.46,4.83     c-2.61,2.85-3.92,7.21-3.92,13.09V2097.89z"></path>			<path style="fill:#FFFFFF;" d="M355.39,2162.71c-4.9-2.89-8.68-7.02-11.34-12.39c-2.66-5.37-3.99-11.6-3.99-18.69     c0-7.09,1.33-13.32,3.99-18.69c2.66-5.37,6.44-9.5,11.34-12.39c4.9-2.89,10.57-4.34,17.01-4.34c6.44,0,12.13,1.45,17.08,4.34     c4.95,2.89,8.75,7.02,11.41,12.39c2.66,5.37,3.99,11.6,3.99,18.69c0,7.09-1.33,13.32-3.99,18.69c-2.66,5.37-6.46,9.5-11.41,12.39     c-4.95,2.89-10.64,4.34-17.08,4.34C365.96,2167.05,360.29,2165.6,355.39,2162.71z M387.87,2151.02     c3.59-4.43,5.39-10.9,5.39-19.39c0-8.31-1.82-14.72-5.46-19.25c-3.64-4.53-8.77-6.79-15.4-6.79c-6.63,0-11.76,2.26-15.4,6.79     c-3.64,4.53-5.46,10.94-5.46,19.25c0,8.4,1.8,14.84,5.39,19.32c3.59,4.48,8.75,6.72,15.47,6.72     C379.12,2157.67,384.28,2155.45,387.87,2151.02z"></path>			<path style="fill:#FFFFFF;" d="M460.46,2106.01l-7.42,0.7c-7,0.65-12.06,2.85-15.19,6.58c-3.13,3.73-4.69,8.35-4.69,13.86v38.92     h-11.34v-68.18h11.06v11.9c3.83-7.93,11.34-12.37,22.54-13.3l4.06-0.28L460.46,2106.01z"></path>		</g>		<g id="mand">			<path style="fill:#FFFFFF;" d="M1619.32,2165.35l-11.48-12.46c-4.01,4.39-8.54,7.72-13.58,10.01     c-5.04,2.29-10.55,3.43-16.52,3.43c-6.25,0-11.78-1.07-16.59-3.22c-4.81-2.15-8.54-5.18-11.2-9.1s-3.99-8.4-3.99-13.44     c0-5.97,1.8-11.32,5.39-16.03c3.59-4.71,9.4-9.5,17.43-14.35c-4.29-4.95-7.28-9.1-8.96-12.46c-1.68-3.36-2.52-6.86-2.52-10.5     c0-6.53,2.22-11.76,6.65-15.68c4.43-3.92,10.29-5.88,17.57-5.88c6.81,0,12.2,1.8,16.17,5.39c3.97,3.59,5.95,8.42,5.95,14.49     c0,4.85-1.45,9.22-4.34,13.09c-2.89,3.87-8.07,8.19-15.54,12.95l23.38,25.62c4.2-8.31,6.44-18.25,6.72-29.82h9.94     c-0.37,14.65-3.64,27.07-9.8,37.24l18.9,20.72H1619.32z M1591.04,2154.22c4.01-1.91,7.51-4.64,10.5-8.19l-26.6-29.12     c-6.53,4.01-11.13,7.79-13.79,11.34c-2.66,3.55-3.99,7.56-3.99,12.04c0,5.13,1.89,9.22,5.67,12.25     c3.78,3.03,8.84,4.55,15.19,4.55C1582.69,2157.09,1587.03,2156.13,1591.04,2154.22z M1571.79,2077.85     c-2.47,2.33-3.71,5.46-3.71,9.38c0,2.71,0.65,5.3,1.96,7.77c1.31,2.47,3.83,5.81,7.56,10.01c6.16-3.83,10.38-7.14,12.67-9.94     c2.29-2.8,3.43-5.79,3.43-8.96c0-3.55-1.1-6.39-3.29-8.54c-2.19-2.15-5.11-3.22-8.75-3.22     C1577.56,2074.35,1574.27,2075.52,1571.79,2077.85z"></path>		</g>		<g id="mel">							<linearGradient id="mbg-el_1_" gradientUnits="userSpaceOnUse" x1="544.4262" y1="-2336.9509" x2="702.7547" y2="-2563.0674" gradientTransform="matrix(1 0 0 1 0 4560)">				<stop offset="0" style="stop-color:#AB38A4"></stop>				<stop offset="1" style="stop-color:#FF4F78"></stop>			</linearGradient>			<path id="mbg-el" style="fill:url(#mbg-el_1_);" d="M709.23,2005.55h-171.3c-10.2,0-18.4,8.2-18.4,18.5v171.9     c0,10.2,8.2,18.5,18.4,18.5h171.3c10.2,0,18.4-8.2,18.4-18.5v-171.9C727.63,2013.75,719.43,2005.55,709.23,2005.55"></path>			<path id="micon-el" style="fill:#FFFFFF;" d="M595.43,2156.95h-18.7v-93.9h18.7V2156.95z M670.33,2156.95h-56.2v-18.8h56.2     V2156.95z M670.33,2119.35h-56.2v-18.8h56.2V2119.35z M670.33,2081.75h-56.2v-18.8h56.2V2081.75z"></path>		</g>		<g id="mwpb_1_">							<linearGradient id="mbg-wpb_1_" gradientUnits="userSpaceOnUse" x1="1732.8263" y1="-2335.9509" x2="1891.1547" y2="-2562.0674" gradientTransform="matrix(1 0 0 1 0 4560)">				<stop offset="0.0108" style="stop-color:#3197FF"></stop>				<stop offset="1" style="stop-color:#4BCAFF"></stop>			</linearGradient>			<path id="mbg-wpb" style="fill:url(#mbg-wpb_1_);" d="M1897.63,2006.55h-171.3c-10.2,0-18.4,8.2-18.4,18.5v171.9     c0,10.2,8.2,18.5,18.4,18.5h171.3c10.2,0,18.4-8.2,18.4-18.5v-171.9C1916.03,2014.75,1907.83,2006.55,1897.63,2006.55"></path>			<path id="micon-wpb" style="fill:#FFFFFF;" d="M1803.93,2064.55c5.4,3.3,6.3,5.2,12.4,12c8.9,9.8,20.2,10.9,22.1,11     c5.4,0.3,10.2-1.2,10.2-1.7s-3.6-0.2-9-1.5c-1.7-0.4-7.6-1.9-7.5-2.7c0,0,25.6-8.2,40.6,6.7c8.8,8.8,11.4,24.8,5.2,36.5     c-0.7,1.4-7,10.5-16.9,14.7c-5.4,2.3-9.5,2.9-14,2.6c-0.4,0-7.8,25.4-7.8,25.4l0,0c-1.7-1.2-8.1-7.2-28.4-6.2     c-8.2,0.4-14.1,4.6-20.6,1.5c-5.2-2.5-6.8-9.6-6.8-9.6s5.2-0.1,14-4.6c7.1-3.6,9.1-7.1,9-7.5c0,0-5.8,3.8-14.8,5.9     c-0.8,0.2-9.6,2.2-19.5,0c-10.7-2.3-24.9-10.1-31.5-25.8c-8.9-21.2,3.3-40.2,4.5-42.1c1.3-1.9,6.9-9.5,17.2-15     C1772.63,2058.95,1791.83,2057.15,1803.93,2064.55z"></path>		</g>	</g>	<g id="mlogo">		<path style="fill:#FFFFFF;" d="M1400.3,296.64c-1.9-1.9-2.9-4.4-2.9-7.5v-53.8h-16c-3.3,0-5.8-0.7-7.4-2.1    c-1.6-1.4-2.4-3.6-2.4-6.5c0-2.9,0.8-5,2.4-6.4c1.6-1.4,4.1-2.1,7.4-2.1h53c3.3,0,5.8,0.7,7.4,2.1c1.6,1.4,2.4,3.5,2.4,6.4    c0,2.9-0.8,5-2.4,6.5c-1.6,1.4-4.1,2.1-7.4,2.1h-16v53.8c0,3.1-1,5.6-2.9,7.5s-4.5,2.8-7.6,2.8S1402.2,298.44,1400.3,296.64z"></path>		<path style="fill:#FFFFFF;" d="M1529,220.54c1.8,1.9,2.8,4.4,2.8,7.5v61.1c0,3.1-0.9,5.6-2.8,7.5c-1.8,1.9-4.3,2.9-7.4,2.9    c-3.1,0-5.6-0.9-7.4-2.8c-1.8-1.9-2.8-4.4-2.8-7.6v-22.8h-32.6v22.8c0,3.1-0.9,5.6-2.8,7.5c-1.8,1.9-4.3,2.9-7.4,2.9    s-5.6-0.9-7.4-2.8c-1.8-1.9-2.8-4.4-2.8-7.6v-61.1c0-3.1,0.9-5.6,2.8-7.5c1.8-1.9,4.3-2.8,7.4-2.8s5.6,0.9,7.4,2.8    c1.8,1.9,2.8,4.4,2.8,7.5v21.6h32.6v-21.6c0-3.1,0.9-5.6,2.8-7.5c1.8-1.9,4.3-2.8,7.4-2.8S1527.2,218.64,1529,220.54z"></path>		<path style="fill:#FFFFFF;" d="M1558.3,296.34c-1.7-1.7-2.5-4.1-2.5-7.2v-61.1c0-3.1,0.8-5.5,2.5-7.2c1.7-1.7,4-2.5,7.1-2.5h39.2    c3.2,0,5.7,0.7,7.4,2.1s2.5,3.4,2.5,5.9c0,5.5-3.3,8.2-9.8,8.2H1576v15.3h26.3c6.6,0,9.8,2.7,9.8,8.1c0,2.6-0.8,4.6-2.5,5.9    c-1.7,1.4-4.1,2.1-7.4,2.1H1576v16.7h28.5c6.6,0,9.8,2.7,9.8,8.2c0,2.6-0.8,4.6-2.5,5.9c-1.7,1.4-4.1,2.1-7.4,2.1h-39.2    C1562.3,298.84,1559.9,297.94,1558.3,296.34z"></path>		<path style="fill:#FFFFFF;" d="M1652.8,460.74c3.7,3.8,5.5,8.5,5.5,14.5c0,5.5-1.8,11.6-5.3,18.2l-194,368.5    c-4.7,8.6-11.5,13-20.4,13c-6.2,0-11.8-2.2-16.6-6.4c-4.9-4.4-7.3-9.6-7.3-16c0-4.4,1.4-8.6,4.1-13l182.2-343.8h-201.7    c-7,0-12.4-1.8-16.1-5.4s-5.5-8.4-5.5-14.8c0-6.6,1.9-11.8,5.5-15.4c3.7-3.6,9-5.4,16.1-5.4h237.3    C1643.8,455.14,1649.1,457.04,1652.8,460.74z"></path>					<linearGradient id="mround_1_" gradientUnits="userSpaceOnUse" x1="1145.1368" y1="-4129.4517" x2="1854.8447" y2="-3719.7019" gradientTransform="matrix(1 0 0 1 0 4560)">			<stop offset="0.0668" style="stop-color:#13E3EE"></stop>			<stop offset="0.9107" style="stop-color:#029CF5"></stop>		</linearGradient>		<path id="mround" style="fill:url(#mround_1_);" d="M1679.8,265.04L1679.8,265.04c-2.5-1.3-5.3-2.1-8.3-2.1c-9.4,0-17,7.7-17,17.2    c0,5.8,2.9,11,7.3,14.1l-0.1,0.1c0.4,0.2,0.8,0.4,1.2,0.6c0.8,0.5,1.6,0.9,2.4,1.2c124,61.6,209.3,190.4,209.3,339.2    c0,208.8-167.8,378-374.7,378s-374.7-169.2-374.7-378c0-148.9,85.3-277.7,209.4-339.3c6.3-2.5,10.7-8.7,10.7-15.9    c0-9.5-7.6-17.2-17-17.2c-2.4,0-4.8,0.5-6.9,1.5v-0.1c-136.2,66.9-230.2,207.9-230.2,371c0,227.7,183,412.4,408.8,412.4    s408.8-184.6,408.8-412.4C1908.6,472.74,1815.3,332.14,1679.8,265.04z"></path>	</g>	<g id="mslogan">		<path style="fill:#FFFFFF;" d="M104.02,1466.55v-145.68H48.74v-39.04h159.3v39.04h-55.28v145.68H104.02z"></path>		<path style="fill:#FFFFFF;" d="M345.85,1348.26c7.51,9.17,11.27,23.1,11.27,41.79v76.51h-46.64v-74.41    c0-7.68-1.36-13.27-4.06-16.77c-2.71-3.49-6.77-5.24-12.18-5.24c-6.99,0-12.54,2.23-16.64,6.68c-4.11,4.45-6.16,10.44-6.16,17.95    v71.79h-46.64v-184.72h46.64v71.27c4.72-6.11,10.48-10.74,17.29-13.89c6.81-3.14,14.41-4.72,22.79-4.72    C326.9,1334.5,338.34,1339.09,345.85,1348.26z"></path>		<path style="fill:#FFFFFF;" d="M502.27,1411.01h-79.65c1.4,8.38,4.45,14.41,9.17,18.08c4.72,3.67,11.44,5.5,20.17,5.5    c6.29,0,12.66-1.05,19.13-3.14c6.46-2.1,12.22-4.98,17.29-8.65l11.79,30.66c-6.46,4.72-14.24,8.43-23.32,11.14    c-9.08,2.71-18.17,4.06-27.25,4.06c-14.85,0-27.69-2.71-38.52-8.12c-10.83-5.41-19.17-13.19-25.02-23.32    c-5.85-10.13-8.78-22.01-8.78-35.63c0-12.92,2.75-24.5,8.25-34.72c5.5-10.22,13.19-18.16,23.06-23.84    c9.87-5.67,21-8.52,33.41-8.52c18.51,0,33.19,5.9,44.02,17.69c10.83,11.79,16.24,27.9,16.24,48.34V1411.01z M422.1,1389h41.14    c-1.05-15.37-7.69-23.06-19.91-23.06C430.92,1365.94,423.84,1373.63,422.1,1389z"></path>		<path style="fill:#FFFFFF;" d="M750.92,1281.84h37.21v184.72H746.2v-96.94l-35.63,66.29h-30.92l-35.37-64.72l-0.26,95.37H602.1    v-184.72h37.99l55.55,105.07L750.92,1281.84z"></path>		<path style="fill:#FFFFFF;" d="M846.68,1460.4c-10.74-5.5-19.04-13.32-24.89-23.45c-5.85-10.13-8.78-22.01-8.78-35.63    c0-13.62,2.92-25.46,8.78-35.5c5.85-10.04,14.1-17.77,24.76-23.19c10.65-5.41,23.14-8.12,37.47-8.12    c14.32,0,26.81,2.71,37.47,8.12c10.65,5.42,18.91,13.15,24.76,23.19c5.85,10.05,8.78,21.88,8.78,35.5    c0,13.62-2.93,25.51-8.78,35.63c-5.85,10.13-14.11,17.95-24.76,23.45c-10.66,5.5-23.15,8.25-37.47,8.25    C869.87,1468.65,857.42,1465.9,846.68,1460.4z M908.91,1401.31c0-21.66-8.3-32.49-24.89-32.49c-16.6,0-24.89,10.83-24.89,32.49    c0,21.66,8.29,32.49,24.89,32.49C900.61,1433.8,908.91,1422.97,908.91,1401.31z"></path>		<path style="fill:#FFFFFF;" d="M993.8,1464.72c-10.48-2.62-19.3-6.46-26.46-11.53l11.79-31.7c6.98,4.54,14.93,8.17,23.84,10.87    c8.91,2.71,17.46,4.06,25.68,4.06c5.06,0,8.99-0.74,11.79-2.23c2.79-1.48,4.19-3.54,4.19-6.16c0-2.27-1.01-4.02-3.01-5.24    c-2.01-1.22-6.07-2.53-12.18-3.93l-20.7-4.72c-13.1-2.97-22.53-7.34-28.3-13.1c-5.76-5.76-8.65-13.97-8.65-24.63    c0-8.21,2.44-15.5,7.34-21.88c4.89-6.37,11.75-11.31,20.57-14.8c8.82-3.49,18.82-5.24,30-5.24c9.26,0,18.47,1.36,27.64,4.06    c9.17,2.71,17.51,6.51,25.02,11.4l-12.05,30.39c-6.99-4.36-14.02-7.73-21.09-10.09c-7.07-2.36-13.76-3.54-20.04-3.54    c-5.07,0-9,0.79-11.79,2.36c-2.8,1.57-4.19,3.84-4.19,6.81c0,1.75,0.87,3.19,2.62,4.32c1.74,1.14,4.8,2.23,9.17,3.28l21.75,4.98    c13.62,2.97,23.49,7.56,29.61,13.76c6.11,6.2,9.17,14.63,9.17,25.28c0,12.75-5.11,22.8-15.33,30.13c-10.22,7.34-24.24,11-42.05,11    C1015.72,1468.65,1004.28,1467.34,993.8,1464.72z"></path>		<path style="fill:#FFFFFF;" d="M1193.19,1434.33l-2.36,33.28c-5.59,0.7-11,1.05-16.24,1.05c-20.96,0-36.2-4.41-45.72-13.23    c-9.52-8.82-14.28-22.49-14.28-41v-42.45h-24.1v-34.32h24.1v-37.47h46.64v37.47h30.92v34.32h-30.92v42.71    c0,13.62,6.37,20.44,19.13,20.44C1184.19,1435.11,1188.47,1434.85,1193.19,1434.33z"></path>		<path style="fill:#FFFFFF;" d="M1326.94,1457.12c-14.24-7.86-25.15-18.95-32.75-33.28c-7.6-14.32-11.4-30.92-11.4-49.78    c0-18.86,3.8-35.41,11.4-49.65c7.6-14.23,18.51-25.28,32.75-33.14c14.23-7.86,30.96-11.79,50.18-11.79    c12.05,0,23.71,1.83,34.98,5.5c11.27,3.67,20.48,8.56,27.64,14.67l-14.93,34.06c-15.2-10.65-30.75-15.98-46.64-15.98    c-15.02,0-26.51,4.72-34.45,14.15c-7.95,9.43-11.92,23.49-11.92,42.18c0,18.69,3.97,32.8,11.92,42.31    c7.95,9.52,19.43,14.28,34.45,14.28c15.89,0,31.44-5.33,46.64-15.98l14.93,34.06c-7.16,6.12-16.38,11-27.64,14.67    c-11.27,3.67-22.93,5.5-34.98,5.5C1357.9,1468.91,1341.18,1464.98,1326.94,1457.12z"></path>		<path style="fill:#FFFFFF;" d="M1589.35,1337.65v128.91h-45.33v-17.29c-4.02,6.29-9.13,11.09-15.33,14.41    c-6.2,3.32-13.32,4.98-21.35,4.98c-16.6,0-28.91-4.59-36.94-13.76c-8.04-9.17-12.05-23.1-12.05-41.79v-75.46h46.64v76.51    c0,12.58,5.41,18.86,16.24,18.86c6.29,0,11.44-2.27,15.46-6.81c4.02-4.54,6.03-10.48,6.03-17.82v-70.74H1589.35z"></path>		<path style="fill:#FFFFFF;" d="M1634.15,1464.72c-10.48-2.62-19.3-6.46-26.46-11.53l11.79-31.7c6.98,4.54,14.93,8.17,23.84,10.87    c8.91,2.71,17.46,4.06,25.68,4.06c5.06,0,8.99-0.74,11.79-2.23c2.79-1.48,4.19-3.54,4.19-6.16c0-2.27-1.01-4.02-3.01-5.24    c-2.01-1.22-6.07-2.53-12.18-3.93l-20.7-4.72c-13.1-2.97-22.53-7.34-28.3-13.1c-5.76-5.76-8.65-13.97-8.65-24.63    c0-8.21,2.44-15.5,7.34-21.88c4.89-6.37,11.75-11.31,20.57-14.8c8.82-3.49,18.82-5.24,30-5.24c9.26,0,18.47,1.36,27.64,4.06    c9.17,2.71,17.51,6.51,25.02,11.4l-12.05,30.39c-6.99-4.36-14.02-7.73-21.09-10.09c-7.07-2.36-13.76-3.54-20.04-3.54    c-5.07,0-9,0.79-11.79,2.36c-2.8,1.57-4.19,3.84-4.19,6.81c0,1.75,0.87,3.19,2.62,4.32c1.74,1.14,4.8,2.23,9.17,3.28l21.75,4.98    c13.62,2.97,23.49,7.56,29.61,13.76c6.11,6.2,9.17,14.63,9.17,25.28c0,12.75-5.11,22.8-15.33,30.13c-10.22,7.34-24.24,11-42.05,11    C1656.07,1468.65,1644.63,1467.34,1634.15,1464.72z"></path>		<path style="fill:#FFFFFF;" d="M1833.54,1434.33l-2.36,33.28c-5.59,0.7-11,1.05-16.24,1.05c-20.96,0-36.2-4.41-45.72-13.23    c-9.52-8.82-14.28-22.49-14.28-41v-42.45h-24.1v-34.32h24.1v-37.47h46.64v37.47h30.92v34.32h-30.92v42.71    c0,13.62,6.37,20.44,19.13,20.44C1824.54,1435.11,1828.82,1434.85,1833.54,1434.33z"></path>		<path style="fill:#FFFFFF;" d="M1877.43,1460.4c-10.74-5.5-19.04-13.32-24.89-23.45c-5.85-10.13-8.78-22.01-8.78-35.63    c0-13.62,2.92-25.46,8.78-35.5c5.85-10.04,14.1-17.77,24.76-23.19c10.65-5.41,23.14-8.12,37.47-8.12    c14.32,0,26.81,2.71,37.47,8.12c10.65,5.42,18.91,13.15,24.76,23.19c5.85,10.05,8.78,21.88,8.78,35.5    c0,13.62-2.93,25.51-8.78,35.63c-5.85,10.13-14.11,17.95-24.76,23.45c-10.66,5.5-23.15,8.25-37.47,8.25    C1900.61,1468.65,1888.17,1465.9,1877.43,1460.4z M1939.65,1401.31c0-21.66-8.3-32.49-24.89-32.49    c-16.6,0-24.89,10.83-24.89,32.49c0,21.66,8.29,32.49,24.89,32.49C1931.35,1433.8,1939.65,1422.97,1939.65,1401.31z"></path>		<path style="fill:#FFFFFF;" d="M2204.94,1348.13c7.25,9.08,10.87,23.06,10.87,41.92v76.51h-46.64v-75.2    c0-7.51-1.14-12.92-3.41-16.24c-2.27-3.32-6.03-4.98-11.27-4.98c-6.46,0-11.4,2.27-14.8,6.81c-3.41,4.54-5.11,11-5.11,19.39v70.22    h-46.64v-75.2c0-7.51-1.14-12.92-3.41-16.24c-2.27-3.32-6.03-4.98-11.27-4.98c-6.46,0-11.36,2.27-14.67,6.81    c-3.32,4.54-4.98,11-4.98,19.39v70.22h-46.64v-128.91h45.33v16.24c8.56-12.92,21.66-19.39,39.3-19.39c18.51,0,31,7.6,37.47,22.79    c4.54-7.16,10.52-12.75,17.95-16.77c7.42-4.02,15.59-6.03,24.5-6.03C2186.55,1334.5,2197.69,1339.05,2204.94,1348.13z"></path>		<path style="fill:#FFFFFF;" d="M2240.96,1273.19h48.73v42.18h-48.73V1273.19z M2242.01,1466.55v-128.91h46.64v128.91H2242.01z"></path>		<path style="fill:#FFFFFF;" d="M2367.77,1432.23h62.1v34.32H2313.8v-32.75l57.9-61.83h-57.9v-34.32h113.45v30.66L2367.77,1432.23z    "></path>		<path style="fill:#FFFFFF;" d="M2554.19,1348.52c9.69,9.35,14.54,23.89,14.54,43.62v74.41h-43.76v-18.08    c-2.45,6.29-6.55,11.23-12.31,14.8c-5.76,3.58-12.67,5.37-20.7,5.37c-8.91,0-16.94-1.79-24.1-5.37    c-7.16-3.58-12.8-8.56-16.9-14.93c-4.11-6.37-6.16-13.58-6.16-21.62c0-9.26,2.4-16.64,7.21-22.14c4.8-5.5,12.45-9.47,22.93-11.92    c10.48-2.44,24.63-3.67,42.45-3.67h7.07v-3.14c0-6.46-1.49-10.96-4.45-13.49c-2.97-2.53-8.21-3.8-15.72-3.8    c-5.94,0-12.8,1.18-20.57,3.54c-7.77,2.36-15.07,5.37-21.88,9.04l-11.79-30.66c7.51-4.54,16.9-8.34,28.17-11.4    c11.27-3.05,21.62-4.59,31.05-4.59C2529.52,1334.5,2544.5,1339.18,2554.19,1348.52z M2518.43,1430.79    c4.02-4.45,6.03-10.17,6.03-17.16v-3.14h-4.19c-11.18,0-19.13,1.01-23.84,3.01c-4.72,2.01-7.07,5.37-7.07,10.09    c0,4.02,1.27,7.34,3.8,9.96c2.53,2.62,5.81,3.93,9.83,3.93C2509.26,1437.47,2514.41,1435.24,2518.43,1430.79z"></path>		<path style="fill:#FFFFFF;" d="M2709.95,1342.62c8.56,5.42,15.24,13.15,20.04,23.19c4.8,10.05,7.21,21.71,7.21,34.98    c0,13.28-2.4,25.07-7.21,35.37c-4.81,10.31-11.53,18.3-20.17,23.97c-8.65,5.68-18.47,8.52-29.48,8.52    c-8.56,0-16.38-1.75-23.45-5.24c-7.07-3.49-12.45-8.29-16.11-14.41v17.55h-45.85v-184.72h46.64v71    c3.84-5.59,9.21-10.04,16.11-13.36c6.9-3.32,14.45-4.98,22.66-4.98C2691.52,1334.5,2701.39,1337.21,2709.95,1342.62z     M2684.54,1425.29c4.36-5.67,6.55-13.84,6.55-24.5c0-10.13-2.14-17.9-6.42-23.32c-4.28-5.41-10.44-8.12-18.47-8.12    c-8.21,0-14.5,2.75-18.86,8.25c-4.37,5.5-6.55,13.41-6.55,23.71c0,10.48,2.18,18.52,6.55,24.1c4.36,5.59,10.57,8.38,18.6,8.38    C2673.97,1433.8,2680.17,1430.97,2684.54,1425.29z"></path>		<path style="fill:#FFFFFF;" d="M2758.69,1466.55v-184.72h46.64v184.72H2758.69z"></path>		<path style="fill:#FFFFFF;" d="M2951.26,1411.01h-79.65c1.4,8.38,4.45,14.41,9.17,18.08c4.72,3.67,11.44,5.5,20.17,5.5    c6.29,0,12.66-1.05,19.13-3.14c6.46-2.1,12.22-4.98,17.29-8.65l11.79,30.66c-6.46,4.72-14.24,8.43-23.32,11.14    c-9.08,2.71-18.17,4.06-27.25,4.06c-14.85,0-27.69-2.71-38.52-8.12c-10.83-5.41-19.17-13.19-25.02-23.32    c-5.85-10.13-8.78-22.01-8.78-35.63c0-12.92,2.75-24.5,8.25-34.72c5.5-10.22,13.19-18.16,23.06-23.84    c9.87-5.67,21-8.52,33.41-8.52c18.51,0,33.19,5.9,44.02,17.69c10.83,11.79,16.24,27.9,16.24,48.34V1411.01z M2871.09,1389h41.14    c-1.05-15.37-7.69-23.06-19.91-23.06C2879.91,1365.94,2872.83,1373.63,2871.09,1389z"></path>		<path style="fill:#FFFFFF;" d="M1054.2,1614.53h45.59l-66.03,184.72h-38.25l-39.04-110.83l-39.56,110.83h-38.52l-65.76-184.72h49    l38.25,117.12l41.4-117.12h33.28l39.56,119.21L1054.2,1614.53z"></path>		<path style="fill:#FFFFFF;" d="M1119.96,1614.53h89.35c20.44,0,36.33,5.2,47.69,15.59c11.35,10.39,17.03,24.85,17.03,43.36    c0,18.34-5.72,32.75-17.16,43.23c-11.44,10.48-27.29,15.72-47.55,15.72h-41.14v66.81h-48.21V1614.53z M1202.76,1696.28    c8.91,0,15.5-1.83,19.78-5.5c4.28-3.67,6.42-9.34,6.42-17.03c0-7.68-2.14-13.4-6.42-17.16c-4.28-3.75-10.87-5.63-19.78-5.63    h-34.59v45.33H1202.76z"></path>		<path style="fill:#FFFFFF;" d="M1413.93,1799.25v-145.68h-55.28v-39.04h159.3v39.04h-55.28v145.68H1413.93z"></path>		<path style="fill:#FFFFFF;" d="M1655.76,1680.95c7.51,9.17,11.27,23.1,11.27,41.79v76.51h-46.64v-74.41    c0-7.68-1.36-13.27-4.06-16.77c-2.71-3.49-6.77-5.24-12.18-5.24c-6.99,0-12.54,2.23-16.64,6.68c-4.11,4.45-6.16,10.44-6.16,17.95    v71.79h-46.64v-184.72h46.64v71.27c4.72-6.11,10.48-10.74,17.29-13.89c6.81-3.14,14.41-4.72,22.79-4.72    C1636.81,1667.2,1648.25,1671.78,1655.76,1680.95z"></path>		<path style="fill:#FFFFFF;" d="M1812.18,1743.7h-79.65c1.4,8.38,4.45,14.41,9.17,18.08c4.72,3.67,11.44,5.5,20.17,5.5    c6.29,0,12.66-1.05,19.13-3.14c6.46-2.1,12.22-4.98,17.29-8.65l11.79,30.66c-6.46,4.72-14.24,8.43-23.32,11.14    c-9.08,2.71-18.17,4.06-27.25,4.06c-14.85,0-27.69-2.71-38.52-8.12c-10.83-5.41-19.17-13.19-25.02-23.32    c-5.85-10.13-8.78-22.01-8.78-35.63c0-12.92,2.75-24.5,8.25-34.72s13.19-18.16,23.06-23.84c9.87-5.67,21-8.52,33.41-8.52    c18.51,0,33.19,5.9,44.02,17.69c10.83,11.79,16.24,27.9,16.24,48.34V1743.7z M1732.01,1721.7h41.14    c-1.05-15.37-7.69-23.06-19.91-23.06C1740.83,1698.64,1733.75,1706.33,1732.01,1721.7z"></path>		<path style="fill:#FFFFFF;" d="M2031.35,1680.82c7.25,9.08,10.87,23.06,10.87,41.92v76.51h-46.64v-75.2    c0-7.51-1.14-12.92-3.41-16.24c-2.27-3.32-6.03-4.98-11.27-4.98c-6.46,0-11.4,2.27-14.8,6.81c-3.41,4.54-5.11,11-5.11,19.39v70.22    h-46.64v-75.2c0-7.51-1.14-12.92-3.41-16.24c-2.27-3.32-6.03-4.98-11.27-4.98c-6.46,0-11.36,2.27-14.67,6.81    c-3.32,4.54-4.98,11-4.98,19.39v70.22h-46.64v-128.91h45.33v16.24c8.56-12.92,21.66-19.39,39.3-19.39c18.51,0,31,7.6,37.47,22.79    c4.54-7.16,10.52-12.75,17.95-16.77c7.42-4.02,15.59-6.03,24.5-6.03C2012.97,1667.2,2024.1,1671.74,2031.35,1680.82z"></path>		<path style="fill:#FFFFFF;" d="M2187.38,1743.7h-79.65c1.4,8.38,4.45,14.41,9.17,18.08c4.72,3.67,11.44,5.5,20.17,5.5    c6.29,0,12.66-1.05,19.13-3.14c6.46-2.1,12.22-4.98,17.29-8.65l11.79,30.66c-6.46,4.72-14.24,8.43-23.32,11.14    c-9.08,2.71-18.17,4.06-27.25,4.06c-14.85,0-27.69-2.71-38.52-8.12c-10.83-5.41-19.17-13.19-25.02-23.32    c-5.85-10.13-8.78-22.01-8.78-35.63c0-12.92,2.75-24.5,8.25-34.72s13.19-18.16,23.06-23.84c9.87-5.67,21-8.52,33.41-8.52    c18.51,0,33.19,5.9,44.02,17.69c10.83,11.79,16.24,27.9,16.24,48.34V1743.7z M2107.2,1721.7h41.14    c-1.05-15.37-7.69-23.06-19.91-23.06C2116.02,1698.64,2108.94,1706.33,2107.2,1721.7z"></path>	</g></g></svg>