<svg xmlns="http://www.w3.org/2000/svg" xmlns:xlink="http://www.w3.org/1999/xlink" id="Layer_1" x="0px" y="0px" viewBox="0 0 48 48" style="enable-background:new 0 0 48 48;" xml:space="preserve"><style type="text/css">	.st0{fill:#FFFFFF;}	.st1{opacity:0.33;fill:#FFFFFF;}</style><g id="logo_1_">	<g id="the_1_">		<path class="st0" d="M19.1,7.6C19,7.5,19,7.3,19,7.2V4.6h-0.8c-0.2,0-0.3,0-0.4-0.1c-0.1-0.1-0.1-0.2-0.1-0.3c0-0.1,0-0.2,0.1-0.3   c0.1-0.1,0.2-0.1,0.4-0.1h2.6c0.2,0,0.3,0,0.4,0.1c0.1,0.1,0.1,0.2,0.1,0.3c0,0.1,0,0.2-0.1,0.3c-0.1,0.1-0.2,0.1-0.4,0.1H20v2.6   c0,0.2,0,0.3-0.1,0.4s-0.2,0.1-0.4,0.1S19.2,7.6,19.1,7.6z"></path>		<path class="st0" d="M25.4,3.8c0.1,0.1,0.1,0.2,0.1,0.4v3c0,0.2,0,0.3-0.1,0.4c-0.1,0.1-0.2,0.1-0.4,0.1c-0.2,0-0.3,0-0.4-0.1   c-0.1-0.1-0.1-0.2-0.1-0.4V6.1H23v1.1c0,0.2,0,0.3-0.1,0.4c-0.1,0.1-0.2,0.1-0.4,0.1c-0.2,0-0.3,0-0.4-0.1C22,7.5,22,7.3,22,7.2   v-3c0-0.2,0-0.3,0.1-0.4c0.1-0.1,0.2-0.1,0.4-0.1c0.2,0,0.3,0,0.4,0.1C22.9,3.9,23,4,23,4.2v1.1h1.6V4.2c0-0.2,0-0.3,0.1-0.4   c0.1-0.1,0.2-0.1,0.4-0.1C25.2,3.7,25.3,3.7,25.4,3.8z"></path>		<path class="st0" d="M26.9,7.5c-0.1-0.1-0.1-0.2-0.1-0.4v-3c0-0.2,0-0.3,0.1-0.4c0.1-0.1,0.2-0.1,0.3-0.1h1.9c0.2,0,0.3,0,0.4,0.1   s0.1,0.2,0.1,0.3c0,0.3-0.2,0.4-0.5,0.4h-1.4v0.7H29c0.3,0,0.5,0.1,0.5,0.4c0,0.1,0,0.2-0.1,0.3C29.3,6,29.2,6.1,29,6.1h-1.3v0.8   h1.4c0.3,0,0.5,0.1,0.5,0.4c0,0.1,0,0.2-0.1,0.3c-0.1,0.1-0.2,0.1-0.4,0.1h-1.9C27,7.7,26.9,7.6,26.9,7.5z"></path>	</g>	<path class="st0" d="M31.5,15.6c0.2,0.2,0.3,0.4,0.3,0.7c0,0.3-0.1,0.6-0.3,0.9l-9.5,18c-0.2,0.4-0.6,0.6-1,0.6  c-0.3,0-0.6-0.1-0.8-0.3c-0.2-0.2-0.4-0.5-0.4-0.8c0-0.2,0.1-0.4,0.2-0.6l8.9-16.8h-9.9c-0.3,0-0.6-0.1-0.8-0.3  c-0.2-0.2-0.3-0.4-0.3-0.7c0-0.3,0.1-0.6,0.3-0.8c0.2-0.2,0.4-0.3,0.8-0.3h11.6C31,15.3,31.3,15.4,31.5,15.6z"></path>	<path id="round_1_" class="st1" d="M32.8,6L32.8,6c-0.1-0.1-0.3-0.1-0.4-0.1c-0.5,0-0.8,0.4-0.8,0.8c0,0.3,0.1,0.5,0.4,0.7l0,0  c0,0,0,0,0.1,0c0,0,0.1,0,0.1,0.1c6.1,3,10.2,9.3,10.2,16.6c0,10.2-8.2,18.5-18.3,18.5S5.7,34.3,5.7,24.1c0-7.3,4.2-13.6,10.2-16.6  c0.3-0.1,0.5-0.4,0.5-0.8c0-0.5-0.4-0.8-0.8-0.8c-0.1,0-0.2,0-0.3,0.1v0C8.6,9.2,4,16.1,4,24.1c0,11.1,9,20.2,20,20.2s20-9,20-20.2  C44,16.2,39.4,9.3,32.8,6z"></path></g></svg>