<svg xmlns="http://www.w3.org/2000/svg" xmlns:xlink="http://www.w3.org/1999/xlink" id="Layer_1" x="0px" y="0px" viewBox="0 0 16 16" style="enable-background:new 0 0 16 16;" xml:space="preserve"><style type="text/css">	.st0{fill:#FFFFFF;}</style><g>	<path class="st0" d="M1.1,15.5c-0.1,0-0.3-0.1-0.4-0.1c-0.2-0.2-0.2-0.5,0-0.7L7.3,8L0.7,1.4c-0.2-0.2-0.2-0.5,0-0.7  c0.1-0.1,0.2-0.1,0.4-0.1s0.3,0.1,0.4,0.1L8,7.3l6.6-6.6c0.1-0.1,0.2-0.1,0.4-0.1c0.1,0,0.3,0.1,0.4,0.1c0.2,0.2,0.2,0.5,0,0.7  L8.7,8l6.6,6.6c0.2,0.2,0.2,0.5,0,0.7c-0.1,0.1-0.2,0.1-0.4,0.1s-0.3-0.1-0.4-0.1L8,8.7l-6.6,6.6C1.3,15.4,1.2,15.5,1.1,15.5z"></path>	<path d="M1.1,1.1L1.1,1.1l6.1,6.1L1.1,1.1C1,1.1,1,1.1,1.1,1.1 M1.1,0.1c-0.3,0-0.5,0.1-0.7,0.3C0,0.7,0,1.4,0.3,1.8L6.6,8  l-6.2,6.2c-0.4,0.4-0.4,1,0,1.4c0.2,0.2,0.5,0.3,0.7,0.3s0.5-0.1,0.7-0.3L8,9.4l6.2,6.2c0.2,0.2,0.5,0.3,0.7,0.3  c0.3,0,0.5-0.1,0.7-0.3c0.4-0.4,0.4-1,0-1.4L9.4,8l6.2-6.2c0.4-0.4,0.4-1,0-1.4c-0.2-0.2-0.5-0.3-0.7-0.3c-0.3,0-0.5,0.1-0.7,0.3  L8,6.6L1.8,0.3C1.6,0.1,1.3,0.1,1.1,0.1L1.1,0.1z"></path></g></svg>